<svg fill="none" xmlns="http://www.w3.org/2000/svg" viewBox="0 0 685 608"><path d="M349.82 669.999c67.378 0 122-3.134 122-7s-54.622-7-122-7c-67.379 0-122 3.134-122 7s54.621 7 122 7z" fill="#E6E6E6"/><path d="M447.557 657.187c15.3-17.41 87.349-103.099 36.14-117.226-38.462-10.61-42.747 47.764-41.456 86.937-6.159-26.393-18.111-57.223-39.111-43.62-30.264 19.604 26.444 62.988 41.258 73.639.243 2.165.403 3.369.403 3.369s.608-.663 1.691-1.882c.846.593 1.317.911 1.317.911s-.079-.768-.242-2.128zM699.639 8.109H.299v447.919h699.34V8.108z" fill="#E6E6E6"/><path d="M679.642 64.29H20.296v365.24h659.346V64.29z" fill="#fff"/><path d="M636.937 101.718H494.84v79.935h142.097v-79.935zm0 105.224H494.84v79.935h142.097v-79.935zm0 105.224H494.84v79.935h142.097v-79.935zM205.098 101.718H63.001v79.935h142.097v-79.935zm0 105.224H63.001v79.935h142.097v-79.935zm0 105.224H63.001v79.935h142.097v-79.935z" fill="#E6E6E6"/><path d="M357.914 149.064c15.958 0 28.895-12.938 28.895-28.897 0-15.959-12.937-28.897-28.895-28.897s-28.895 12.938-28.895 28.897c0 15.959 12.937 28.897 28.895 28.897z" fill="#2F2E41"/><path d="M460.891 28.25l9.654-8.097a11.407 11.407 0 003.346-12.762 11.4 11.4 0 00-7.301-6.88 11.41 11.41 0 00-14.002 6.741l-4.607 11.776-36.888 63.327-18.751 51.338 15.063 18.138 20.288-62.713 33.198-60.868zm-205.339 0l-9.654-8.097a11.407 11.407 0 01-3.346-12.762 11.4 11.4 0 017.301-6.88 11.41 11.41 0 0114.002 6.741l4.608 11.776 36.887 63.327 20.595 51.953-16.906 17.523-20.288-62.713-33.199-60.868z" fill="#A0616A"/><path d="M359.144 106.026c8.149 0 14.755-6.606 14.755-14.756s-6.606-14.756-14.755-14.756c-8.149 0-14.755 6.607-14.755 14.756 0 8.15 6.606 14.756 14.755 14.756z" fill="#2F2E41"/><path d="M360.373 553.007l-13.218-.922.615-180.145 32.584 7.992-19.981 173.075z" fill="#A0616A"/><path d="M345.546 597.793a12.851 12.851 0 01-11.844-8.606c-2.876-8.447-1.39-16.485 3.617-24.191l-1.636-11.45a12.748 12.748 0 012.998-10.16l8.474-9.746v12.296c6.203-5.426 10.028-5.622 15.37-1.229l-4.918 25.208 1.201 13.81a12.945 12.945 0 01-3.479 10.006 12.952 12.952 0 01-9.783 4.062z" fill="#2F2E41"/><path d="M381.583 187.491l-51.642-1.23c7.318-7.113 17.798-34.39 15.985-42.423h25.206c-3.026 8.267 2.831 36.348 10.451 43.653z" fill="#A0616A"/><path d="M395.109 282.175l-71.316-20.905 2.46-30.741-6.148-31.356c.627-3.402-15.605-45.421-14.755-48.572 3.395-12.588 12.288-10.849 18.751-19.982 1.049-1.483 9.24 8.947 14.537 15.999a235.29 235.29 0 001.358 2.321 18.363 18.363 0 012.473 11.17l-.006.068c-2.903 10.047 3.766 5.928 14.221 6.102 8.871.148 16.907 7.177 16.907-1.695-.014-.503-.037-1.028-.06-1.568a24.739 24.739 0 013.115-13.011c.137-.249-.517.79 2.829-4.915 5.999-8.484 14.261-19.758 14.712-18.16 1.895 6.727 11.647 12.379 15.062 24.286.525 1.833-2.642 12.957-2.459 14.756 1.369 13.484-1.23 20.904-2.459 31.356a264.872 264.872 0 00-9.222 84.847z" fill="#B40A0A"/><path d="M385.272 387.31l-40.576-12.296-.615-36.89-31.969-61.483 12.296-20.289 70.086 18.445c4.782 30.646-.489 70.068-9.222 112.513z" fill="#2F2E41"/><path d="M366.214 338.124h-22.133l-41.19-57.794 14.755-12.296 48.568 70.09z" fill="#2F2E41"/><path d="M376.665 337.509h-36.776a43.555 43.555 0 01-24.476-7.48c-16.121-10.898-21.282-32.323-12.522-49.699l73.774 3.689v53.49z" fill="#2F2E41"/><path d="M344.488 296.067l-32.376-.981a25.8 25.8 0 01-.345-.927c-4.306-12.263 2.169-25.595 14.149-30.635a60.159 60.159 0 013.682-1.408 19.337 19.337 0 0125.705 17.925 48.667 48.667 0 01-.459 7.367 10.12 10.12 0 01-10.356 8.659z" fill="#A0616A"/><path d="M326.867 394.688h-12.91l-1.845-104.521 36.273-.615-21.518 105.136z" fill="#A0616A"/><path d="M312.348 440.616a12.846 12.846 0 01-11.845-8.607c-2.875-8.447-1.389-16.484 3.617-24.19l-1.635-11.45a12.737 12.737 0 012.997-10.16l8.475-9.746v12.296c6.203-5.426 10.027-5.622 15.369-1.23l-4.918 25.208 1.201 13.811c.158 1.819-.07 3.65-.669 5.375a12.97 12.97 0 01-2.809 4.631 12.965 12.965 0 01-9.783 4.062z" fill="#2F2E41"/><path d="M358.836 153.06c13.921 0 25.207-11.286 25.207-25.208 0-13.922-11.286-25.208-25.207-25.208-13.921 0-25.206 11.286-25.206 25.208 0 13.922 11.285 25.208 25.206 25.208z" fill="#A0616A"/><path d="M380.969 116.786c0 12.903-11.689-5.534-24.592-5.534-12.902 0-22.132 18.437-22.132 5.534a23.366 23.366 0 0123.362-23.364 23.36 23.36 0 0123.362 23.364z" fill="#2F2E41"/><path d="M699.341 7.712H0v29.713h699.341V7.712z" fill="#B40A0A"/><path d="M22.078 28.41a5.507 5.507 0 100-11.013 5.507 5.507 0 000 11.013zm20.902 0a5.507 5.507 0 100-11.013 5.507 5.507 0 000 11.013zm20.902 0a5.507 5.507 0 100-11.013 5.507 5.507 0 000 11.013z" fill="#fff"/></svg>