<svg xmlns="http://www.w3.org/2000/svg" viewBox="0 0 383.78 167.62">
  <path fill="none" stroke="#B40A0A" strokeLinecap="round" strokeWidth="16"
    d="M14.15 20.11Q1.07 123.3 15.82 127.44q16.11 4.53 65.41-109M101.83 126.8q8.4-66.18-1.07-68.84-10.23-2.88-41.33 68.47a.6.6 0 00.8.79l15.45-7.12M263.09 59.52c4.8-5.45 7.56-6.51 9.22-5.87 9.67 3.73 10 75.92-32.7 98.95-16.22 8.74-33.25 7.48-42.76 5.87M167.77 126.71q8.39-66.19-1.08-68.85-10.33-2.86-41.95 69.92" />
  <path fill="none" stroke="#B40A0A" strokeLinecap="round" strokeWidth="16"
    d="M233.6 126.92q8.39-66.18-1.08-68.85-10.23-2.87-41.32 68.48a.6.6 0 00.79.79l15.46-7.12M332.77 127.83q8.39-66.18-1.08-68.84-10.23-2.88-41.32 68.47a.6.6 0 00.79.79l15.46-7.12" />
  <path fill="#b40a0a"
    d="M362.73 81c-1.54-.12 1.73-14.81-6-30-2.13-4.19-5-9.65-11-13-8.35-4.66-17.84-2.51-18-4-.14-1.29 7.13-1.35 13-7a25.45 25.45 0 006-10c3.49-9.14 1.61-16.95 3-17 1.71-.07 2.06 4.88 6 11 1.72 2.68 3.85 6 7 8 8.39 5.36 20.11-1.06 21 1s-9.17 5.95-15 16c-1.35 2.32-1.2 5.17-1.7 10.49-.67 7.16-.1 9.92-.3 15.51-.37 10-2.89 19.09-4 19z" />
</svg>