<svg xmlns="http://www.w3.org/2000/svg" viewBox="0 0 117.711 22.409">
  <path
    d="M11.711.178H1.427A1.405 1.405 0 000 1.569a1.427 1.427 0 001.427 1.427h3.735v17.982a1.405 1.405 0 002.811 0V2.993h3.735a1.427 1.427 0 001.427-1.427A1.427 1.427 0 0011.708.178M22.748 11.058h-3.439l1.737-5.251zm6.064 9.514L22.419.977a1.477 1.477 0 00-2.779 0l-6.387 19.588a1.327 1.327 0 00.168 1.227 1.427 1.427 0 001.138.61 1.5 1.5 0 001.363-1l2.5-7.584h5.231l1.031 3.21 1.463 4.373a1.5 1.5 0 001.359 1 1.427 1.427 0 001.142-.61 1.331 1.331 0 00.171-1.22M42.621 19.377H35.28V1.427A1.391 1.391 0 0033.889 0a1.427 1.427 0 00-1.427 1.427V20.8a1.427 1.427 0 001.427 1.427h8.733a1.427 1.427 0 100-2.854M49.584 9.685a4.684 4.684 0 001.5-2.14V2.993h7.134a1.427 1.427 0 001.427-1.427A1.405 1.405 0 0058.221.179h-8.563a1.427 1.427 0 00-1.391 1.388v9.749a5.158 5.158 0 011.316-1.63M58.299 19.377h-7.22v-6.214s0-.036-.021-.046a.072.072 0 00-.05 0l-2.7 2.119a.185.185 0 00-.032.036.174.174 0 000 .054v5.476a1.427 1.427 0 001.391 1.427h8.64a1.427 1.427 0 000-2.854" />
  <path
    d="M44.512 16.588l6.963-5.3 2.361 3.21a1.1 1.1 0 001.63.243l5.469-4.174s.467-1.37.585-1.876a.182.182 0 00-.2-.214c-.2 0-1.88.05-1.88.05l-4.306 3.392-2.3-3.068a1.2 1.2 0 00-1.965-.185c-1.252 1.049-7.848 5.943-7.848 5.943a1.272 1.272 0 00-.246 1.784 1.181 1.181 0 001.737.2M76.566 0a1.427 1.427 0 00-1.427 1.427v13.652L67.934.788A1.448 1.448 0 0066.667 0a1.427 1.427 0 00-1.387 1.427v19.555a1.405 1.405 0 001.388 1.427 1.427 1.427 0 001.427-1.427V7.323l7.213 14.269a1.4 1.4 0 001.266.788.956.956 0 00.321-.039 1.427 1.427 0 001.1-1.381V1.427A1.427 1.427 0 0076.57 0M92.933 6.31v9.781a3.542 3.542 0 01-3.5 3.5 3.5 3.5 0 01-3.5-3.5V6.31a3.5 3.5 0 013.5-3.5 3.546 3.546 0 013.5 3.5M89.433 0a6.318 6.318 0 00-6.317 6.31v9.781a6.31 6.31 0 1012.621 0V6.31a6.318 6.318 0 00-6.3-6.31M116.291 0a1.455 1.455 0 00-1.268.788l-5.708 11.387L103.681.788A1.455 1.455 0 00102.418 0a1.427 1.427 0 00-1.395 1.427v19.552a1.407 1.407 0 002.815 0V7.406l4.249 8.561a1.427 1.427 0 001.259.781 1.359 1.359 0 001.266-.788l4.28-8.56v13.58a1.409 1.409 0 102.818 0V1.427A1.427 1.427 0 00116.291 0" />
  </svg>